<?xml version="1.0" standalone="no"?>
<!DOCTYPE svg PUBLIC "-//W3C//DTD SVG 20010904//EN"
 "http://www.w3.org/TR/2001/REC-SVG-20010904/DTD/svg10.dtd">
<svg version="1.0" xmlns="http://www.w3.org/2000/svg"
 width="700.000000pt" height="700.000000pt" viewBox="0 0 700.000000 700.000000"
 preserveAspectRatio="xMidYMid meet">
<metadata>
Created by potrace 1.14, written by Peter Selinger 2001-2017
</metadata>
<g transform="translate(0.000000,700.000000) scale(0.100000,-0.100000)"
fill="#000000" stroke="none">
<path d="M1027 6994 c-1 -1 -31 -4 -67 -7 -85 -8 -111 -13 -195 -39 -171 -51
-322 -142 -450 -272 -109 -110 -197 -246 -240 -371 -9 -27 -20 -57 -23 -65 -6
-18 -7 -22 -21 -83 -6 -26 -14 -80 -18 -120 -8 -92 -8 -4977 0 -5074 15 -174
85 -359 195 -512 158 -222 429 -391 691 -429 60 -9 5142 -9 5202 0 325 48 631
273 778 575 41 84 77 181 86 235 3 18 8 40 10 48 2 8 7 35 10 60 9 58 9 5048
1 5115 -17 130 -51 240 -111 359 -154 302 -429 503 -775 567 -49 9 -664 12
-2568 13 -1377 1 -2504 0 -2505 0z m688 -899 c212 -57 382 -217 455 -431 94
-271 -14 -587 -256 -751 -212 -144 -513 -148 -724 -9 -385 254 -409 794 -48
1074 77 60 154 97 241 117 39 10 77 18 82 20 28 7 198 -6 250 -20z m3910 4
c219 -53 399 -222 472 -444 33 -101 37 -262 10 -364 -64 -237 -250 -416 -498
-478 -61 -15 -236 -11 -301 7 -214 59 -379 204 -452 397 -38 101 -45 144 -42
262 4 175 65 318 191 445 90 92 230 165 348 185 67 11 208 6 272 -10z m-3889
-1967 c139 -43 274 -144 353 -262 185 -275 142 -633 -104 -858 -121 -110 -268
-166 -440 -166 -177 0 -313 52 -442 169 -241 218 -287 580 -108 849 92 139
244 244 410 282 80 18 250 11 331 -14z m3939 -6 c164 -56 297 -168 373 -313
54 -104 73 -177 77 -291 14 -441 -396 -768 -824 -657 -236 61 -417 249 -477
495 -20 85 -12 259 16 340 68 195 210 346 389 415 95 36 141 43 261 40 84 -2
121 -7 185 -29z m-3975 -1942 c185 -45 350 -177 434 -348 162 -327 27 -724
-299 -882 -192 -92 -389 -92 -580 1 -145 70 -243 171 -310 319 -71 156 -78
323 -21 487 76 219 263 382 491 428 94 19 192 17 285 -5z m3973 -15 c188 -62
344 -212 411 -392 166 -444 -172 -910 -645 -890 -280 11 -509 188 -600 463
-29 89 -36 232 -15 329 49 230 235 431 458 496 127 36 271 34 391 -6z"/>
</g>
</svg>
